<mxfile host="65bd71144e">
    <diagram id="OhyK4P2wrpAa_DhWIPWD" name="Page-1">
        <mxGraphModel dx="525" dy="438" grid="1" gridSize="10" guides="1" tooltips="1" connect="1" arrows="1" fold="1" page="1" pageScale="1" pageWidth="850" pageHeight="1100" math="0" shadow="0">
            <root>
                <mxCell id="0"/>
                <mxCell id="1" parent="0"/>
                <mxCell id="2" value="video_id" style="rounded=0;whiteSpace=wrap;html=1;" parent="1" vertex="1">
                    <mxGeometry x="310" y="200" width="470" height="40" as="geometry"/>
                </mxCell>
                <mxCell id="3" value="SN" style="rounded=0;whiteSpace=wrap;html=1;" parent="1" vertex="1">
                    <mxGeometry x="310" y="250" width="120" height="30" as="geometry"/>
                </mxCell>
                <mxCell id="4" value="camera_index" style="rounded=0;whiteSpace=wrap;html=1;" parent="1" vertex="1">
                    <mxGeometry x="440" y="250" width="210" height="30" as="geometry"/>
                </mxCell>
                <mxCell id="5" value="video_index" style="rounded=0;whiteSpace=wrap;html=1;" parent="1" vertex="1">
                    <mxGeometry x="660" y="250" width="120" height="30" as="geometry"/>
                </mxCell>
                <mxCell id="6" value="type" style="rounded=0;whiteSpace=wrap;html=1;" parent="1" vertex="1">
                    <mxGeometry x="440" y="290" width="40" height="30" as="geometry"/>
                </mxCell>
                <mxCell id="7" value="gimbal_index" style="rounded=0;whiteSpace=wrap;html=1;" parent="1" vertex="1">
                    <mxGeometry x="570" y="290" width="80" height="30" as="geometry"/>
                </mxCell>
                <mxCell id="8" value="subtype" style="rounded=0;whiteSpace=wrap;html=1;" parent="1" vertex="1">
                    <mxGeometry x="490" y="290" width="70" height="30" as="geometry"/>
                </mxCell>
                <mxCell id="9" value="1581F7FVC253A00D04J5/88-0-0/normal-0" style="rounded=0;whiteSpace=wrap;html=1;fontFamily=Courier New;" parent="1" vertex="1">
                    <mxGeometry x="310" y="390" width="470" height="40" as="geometry"/>
                </mxCell>
                <mxCell id="16" value="一号机9N9CN2J0012CXY" style="rounded=0;whiteSpace=wrap;html=1;fillColor=#f8cecc;strokeColor=#b85450;fontFamily=Courier New;" parent="1" vertex="1">
                    <mxGeometry x="310" y="350" width="120" height="30" as="geometry"/>
                </mxCell>
                <mxCell id="17" value="&lt;span style=&quot;color: rgb(0, 0, 0);&quot;&gt;9N9CN2J0012CXY&lt;/span&gt;/88-0-0/normal-0" style="rounded=0;whiteSpace=wrap;html=1;fontFamily=Courier New;" vertex="1" parent="1">
                    <mxGeometry x="310" y="440" width="470" height="40" as="geometry"/>
                </mxCell>
            </root>
        </mxGraphModel>
    </diagram>
</mxfile>